<?xml version="1.0" encoding="UTF-8"?>
<svg width="158px" height="158px" viewBox="0 0 158 158" version="1.1" xmlns="http://www.w3.org/2000/svg" xmlns:xlink="http://www.w3.org/1999/xlink">
    <!-- Generator: Sketch 42 (36781) - http://www.bohemiancoding.com/sketch -->
    <title>Group 2</title>
    <desc>Created with Sketch.</desc>
    <defs></defs>
    <g id="#3A66A1" stroke="none" stroke-width="1" fill="none" fill-rule="evenodd">
        <g id="Group-2" transform="translate(-73.000000, -72.000000)" fill="#D6D6D9">
            <path d="M246.880217,167.029559 L262.761237,151.148539 L241.546721,129.934022 L165.890234,54.2775357 C158.072514,46.4598155 145.412647,46.4655995 137.600711,54.2775357 L133.505849,58.3723978 C157.219957,60.7651198 175.729708,80.7823346 175.729708,105.132774 L175.729708,199.132774 L115.729722,199.132774 C89.7723245,199.132774 68.7297077,178.095865 68.7297077,152.132774 C68.7297077,126.175391 89.7666172,105.132774 115.729708,105.132774 L145.648369,105.132774 C141.259921,94.0015488 130.410835,86.132774 117.722378,86.132774 L105.745472,86.132774 L61.9442242,129.934022 L40.7297077,151.148539 L61.9442242,172.363055 L137.600711,248.019542 C145.418431,255.837262 158.078298,255.831478 165.890234,248.019542 L207.253355,206.656421 L231.973209,181.936566 C225.462941,183.456895 218.33888,181.679501 213.263762,176.604383 C205.453277,168.793897 205.453277,156.130597 213.263762,148.320112 C221.074248,140.509626 233.737548,140.509626 241.548034,148.320112 C246.623151,153.395229 248.400546,160.51929 246.880217,167.029559 Z" id="Combined-Shape" transform="translate(151.745472, 151.148539) rotate(-45.000000) translate(-151.745472, -151.148539) "></path>
            <path d="M125.47382,192.81212 L156.83688,192.81212 L156.83688,152.81212 L125.47381,152.81212 C114.777531,152.81212 106.11074,161.477903 106.11074,172.167688 L106.11074,173.456552 C106.11074,184.145036 114.779882,192.81212 125.47381,192.81212 Z" id="Combined-Shape" transform="translate(131.473810, 172.812120) rotate(-45.000000) translate(-131.473810, -172.812120) "></path>
        </g>
    </g>
</svg>