<svg xmlns="http://www.w3.org/2000/svg" xmlns:xlink="http://www.w3.org/1999/xlink" version="1.1" x="0px" y="0px" viewBox="0 0 100 125" enable-background="new 0 0 100 100" fill="#3e414a" xml:space="preserve"><path d="M49.992,7.418c-16.564,0-29.056,11.762-29.056,27.359c0,8.441,3.523,13.312,7.271,18.49  c2.702,3.741,5.764,7.979,8.186,14.36c0.013,0.037,0.024,0.071,0.033,0.091c0.197,0.632,1.282,4.716,1.617,6.384  c0.235,1.167,1.261,2.007,2.451,2.007H40.5l9.492-0.021l9.508,0.021h0.006c1.19,0,2.217-0.84,2.451-2.008  c0.326-1.626,1.414-5.739,1.601-6.344c0.016-0.043,0.031-0.087,0.046-0.129c2.433-6.404,5.497-10.642,8.201-14.381  c0.016-0.021,0.03-0.042,0.045-0.063c3.716-5.133,7.214-9.998,7.214-18.407C79.063,19.18,66.572,7.418,49.992,7.418z M67.756,50.313  c-0.016,0.021-0.03,0.043-0.045,0.064c-2.883,3.985-6.142,8.508-8.799,15.521c-0.023,0.062-0.029,0.073-0.048,0.136  c-0.016,0.041-0.057,0.159-0.069,0.201c-0.171,0.552-0.801,2.898-1.281,4.87l-7.521-0.017l-7.508,0.017  c-0.475-1.944-1.101-4.284-1.287-4.879c-0.008-0.025-0.042-0.117-0.051-0.143c-0.019-0.063-0.039-0.124-0.063-0.185  c-2.658-7.024-5.934-11.559-8.839-15.58c-0.007-0.01-0.015-0.021-0.022-0.03c-3.514-4.856-6.286-8.7-6.286-15.512  c0-12.747,10.342-22.359,24.071-22.359c13.714,0,24.056,9.612,24.056,22.359C74.063,41.6,71.28,45.444,67.756,50.313z   M57.584,79.582H42.416c-1.381,0-2.5,1.119-2.5,2.5s1.119,2.5,2.5,2.5h15.168c1.381,0,2.5-1.119,2.5-2.5  S58.965,79.582,57.584,79.582z M57.584,87.582H42.416c-1.381,0-2.5,1.119-2.5,2.5s1.119,2.5,2.5,2.5h15.168  c1.381,0,2.5-1.119,2.5-2.5S58.965,87.582,57.584,87.582z"/></svg>
