<?xml version="1.0" encoding="UTF-8"?>
<svg width="32px" height="32px" viewBox="0 0 62 32" version="1.1" xmlns="http://www.w3.org/2000/svg" xmlns:xlink="http://www.w3.org/1999/xlink">
    <!-- Generator: Sketch 3.6.1 (26313) - http://www.bohemiancoding.com/sketch -->
    <title>Shape</title>
    <desc>Created with Sketch.</desc>
    <defs></defs>
    <g id="Page-1" stroke="none" stroke-width="1" fill="none" fill-rule="evenodd">
        <g id="arrow" fill="#7AC279">
            <path d="M46.676,8.663 C46.039,8.872 45.389,9.075 44.738,9.259 C42.326,9.948 39.838,10.462 37.293,10.779 C36.309,10.902 35.311,11.002 34.309,11.062 C33.526,11.113 32.741,11.148 31.946,11.164 C31.633,11.172 31.317,11.172 31.003,11.172 C30.685,11.172 30.368,11.172 30.056,11.164 C29.261,11.148 28.476,11.113 27.693,11.062 C26.691,11.001 25.693,10.902 24.711,10.779 C22.164,10.463 19.678,9.949 17.266,9.259 C16.614,9.075 15.965,8.872 15.327,8.663 C12.807,7.831 10.378,6.801 8.054,5.599 C7.228,5.171 6.413,4.719 5.615,4.244 C3.802,3.175 2.064,1.991 0.408,0.703 L2.693,2.989 L6.689,6.985 L10.484,10.779 L14.214,14.513 L18.214,18.511 L23.976,24.274 L31.001,31.297 L38.03,24.274 L43.792,18.511 L47.79,14.513 L51.52,10.779 L55.317,6.985 L59.313,2.989 L61.598,0.703 C59.942,1.991 58.203,3.175 56.391,4.244 C55.59,4.719 54.777,5.171 53.949,5.599 C51.627,6.801 49.195,7.831 46.676,8.663 Z" id="Shape" transform="translate(31.003000, 16.000000) rotate(180.000000) translate(-31.003000, -16.000000) "></path>
        </g>
    </g>
</svg>
